<svg width="106" height="106" viewBox="0 0 106 106" fill="none" xmlns="http://www.w3.org/2000/svg">
<path d="M52.5395 0.00223019C52.8015 0.00334201 53.0634 0.00445383 53.3332 0.00559934C68.2367 0.0953792 81.0795 6.27083 91.461 16.7694C97.0998 22.8188 101.132 30.2233 103.446 38.1397C103.548 38.4859 103.548 38.4859 103.652 38.839C104.895 43.3721 105.299 47.8741 105.265 52.5585C105.263 52.9515 105.263 52.9515 105.262 53.3524C105.241 57.4199 104.992 61.2885 103.933 65.2335C103.871 65.4817 103.808 65.7298 103.743 65.9855C100.314 79.3913 91.3882 90.9729 79.5759 98.1058C75.5149 100.479 71.217 102.282 66.6958 103.577C66.4121 103.66 66.4121 103.66 66.1228 103.743C61.6938 104.929 57.2925 105.3 52.727 105.265C52.4651 105.264 52.2032 105.263 51.9334 105.261C37.0299 105.172 24.1871 98.9961 13.8056 88.4975C8.16681 82.4482 4.13455 75.0436 1.8208 67.1272C1.75283 66.8965 1.68486 66.6657 1.61484 66.4279C0.371757 61.8949 -0.0327753 57.3929 0.00204561 52.7085C0.00295802 52.4465 0.00387043 52.1845 0.0048105 51.9146C0.0257083 47.847 0.274419 43.9785 1.3333 40.0335C1.39599 39.7853 1.45869 39.5371 1.52329 39.2814C4.95308 25.8757 13.8784 14.294 25.6907 7.16122C29.7517 4.78753 34.0496 2.98515 38.5708 1.68973C38.7599 1.63489 38.949 1.58005 39.1438 1.52354C43.5728 0.337924 47.9741 -0.0327472 52.5395 0.00223019Z" fill="#3B83F6"></path>
<path d="M93 53C93 68.464 80.5509 81 65.1941 81C49.8374 81 37.3882 68.464 37.3882 53C37.3882 37.536 49.8374 25 65.1941 25C80.5509 25 93 37.536 93 53Z" fill="white"></path>
<path d="M34.9706 33.6443C26.5911 35.8077 20.3983 43.4645 20.3979 52.5771C20.3979 61.6899 26.591 69.3462 34.9706 71.5099V80.1542C21.9188 77.8496 12 66.3803 12 52.5771C12.0004 38.7742 21.919 27.3044 34.9706 25V33.6443Z" fill="white"></path>
</svg>